<?xml version="1.0" standalone="no"?>
<!DOCTYPE svg PUBLIC "-//W3C//DTD SVG 20010904//EN"
 "http://www.w3.org/TR/2001/REC-SVG-20010904/DTD/svg10.dtd">
<svg version="1.0" xmlns="http://www.w3.org/2000/svg"
 width="1696.000000pt" height="1696.000000pt" viewBox="0 0 1696.000000 1696.000000"
 preserveAspectRatio="xMidYMid meet">
<metadata>
Created by potrace 1.14, written by Peter Selinger 2001-2017
</metadata>
<g transform="translate(0.000000,1696.000000) scale(0.100000,-0.100000)"
fill="#000000" stroke="none">
<path d="M4 11898 c-2 -3 -2 -12 1 -20 2 -7 11 -51 20 -98 21 -119 25 -141 32
-175 6 -29 7 -37 17 -102 2 -18 8 -42 11 -54 4 -11 8 -31 10 -42 2 -20 11 -72
22 -122 8 -42 41 -222 47 -255 7 -45 14 -77 20 -98 3 -9 7 -33 10 -52 3 -19 8
-48 12 -65 3 -16 7 -39 9 -50 2 -11 7 -36 10 -55 3 -19 12 -66 20 -105 14 -68
19 -99 30 -160 3 -16 12 -64 20 -105 8 -41 17 -86 19 -100 3 -14 10 -50 16
-80 6 -30 13 -68 16 -85 5 -30 22 -123 51 -270 8 -44 16 -94 17 -111 2 -17 6
-35 9 -41 4 -6 9 -25 11 -44 8 -60 18 -114 22 -120 2 -4 6 -28 9 -55 4 -26 8
-51 10 -54 2 -4 9 -33 14 -66 15 -90 21 -117 28 -144 3 -14 7 -32 8 -40 11
-81 17 -115 21 -121 2 -4 6 -20 8 -36 8 -55 17 -109 26 -143 5 -19 11 -53 15
-75 3 -22 7 -47 10 -55 6 -19 13 -64 21 -120 3 -25 8 -48 10 -51 2 -3 6 -21 9
-40 3 -19 8 -47 12 -64 4 -16 6 -35 5 -42 -2 -6 2 -14 7 -18 6 -3 8 -12 5 -19
-3 -8 -1 -31 5 -52 6 -22 13 -55 16 -74 3 -19 15 -80 26 -135 11 -55 22 -116
25 -135 2 -19 7 -46 10 -60 6 -26 18 -90 29 -150 3 -19 8 -42 10 -50 5 -16 15
-69 21 -110 2 -14 6 -36 9 -50 3 -14 7 -36 9 -50 3 -14 10 -50 16 -80 16 -84
22 -114 24 -130 2 -16 9 -53 32 -170 9 -41 22 -111 30 -155 16 -93 20 -114 40
-215 8 -41 16 -84 18 -95 2 -11 6 -33 9 -50 4 -16 9 -46 12 -65 3 -19 8 -42
10 -50 2 -8 7 -31 9 -50 3 -19 8 -46 11 -60 3 -14 8 -38 11 -55 3 -16 10 -55
16 -85 7 -30 13 -66 14 -80 2 -14 8 -47 14 -75 6 -27 13 -61 16 -75 3 -14 7
-38 9 -55 3 -16 9 -52 15 -80 13 -61 14 -68 34 -175 21 -116 24 -131 31 -160
3 -14 7 -38 10 -55 3 -16 9 -52 15 -80 5 -27 12 -63 15 -80 3 -16 8 -41 11
-55 3 -14 8 -43 10 -65 3 -22 8 -42 10 -45 9 -8 2528 -7 2546 2 10 5 17 12 16
16 -1 4 2 30 7 57 5 28 8 54 7 59 -2 4 3 14 9 22 6 8 9 14 6 14 -3 0 0 19 5
43 5 23 11 53 13 67 2 14 16 86 30 160 15 74 28 144 30 155 4 28 13 75 35 185
11 52 22 113 25 135 4 22 8 48 11 57 3 10 7 30 10 45 2 16 11 62 19 103 15 76
25 129 31 165 1 11 5 31 9 45 3 14 8 39 10 55 3 17 8 37 10 45 2 8 6 33 10 55
3 22 7 47 10 55 2 8 6 26 9 40 8 47 26 145 31 170 6 30 17 90 20 110 1 8 5 26
8 40 7 30 39 198 42 220 1 8 5 26 8 40 4 14 9 41 11 61 3 20 8 42 10 50 3 8 7
30 10 50 3 20 8 42 10 50 3 8 8 32 11 53 3 21 7 48 10 60 3 12 7 32 9 46 3 14
10 50 16 80 6 30 13 69 15 85 3 17 8 44 12 60 3 17 7 39 9 50 2 11 5 31 8 45
5 22 11 54 22 113 2 10 5 26 8 35 3 9 7 33 10 52 3 19 10 60 16 90 6 30 13 66
15 80 3 14 6 32 8 40 9 36 21 116 19 123 -1 4 1 7 6 7 4 0 7 10 8 23 1 23 8
69 23 139 5 24 9 50 9 58 1 8 5 33 11 55 5 22 13 56 16 75 3 19 8 42 10 50 2
8 6 31 9 50 9 53 15 86 36 191 11 53 22 113 26 134 6 42 11 69 19 105 3 14 8
36 11 50 8 41 12 63 18 102 3 21 10 58 16 83 6 25 13 62 16 81 8 49 12 72 18
92 3 9 7 33 10 52 3 19 10 60 16 90 6 30 13 66 16 80 2 14 7 36 9 50 5 23 7
36 19 103 2 13 13 71 25 128 11 57 22 118 25 134 3 17 10 48 15 70 5 22 12 62
16 89 3 27 8 53 10 57 3 4 7 24 11 45 3 22 14 84 25 139 11 55 22 116 25 135
3 19 7 37 9 40 2 3 6 26 10 50 4 25 8 50 9 55 7 30 18 105 15 107 -1 2 3 12 9
24 6 12 12 37 14 57 2 35 3 35 51 39 57 4 63 -3 71 -76 3 -26 8 -51 10 -54 4
-6 14 -58 20 -107 2 -11 6 -33 9 -50 10 -46 18 -88 21 -110 2 -11 4 -20 6 -20
1 0 3 -9 4 -20 1 -11 6 -38 10 -60 5 -22 10 -51 12 -65 2 -14 9 -45 14 -70 5
-25 12 -58 15 -75 2 -16 11 -64 19 -105 22 -114 27 -143 31 -172 2 -15 6 -31
9 -36 3 -5 8 -31 12 -58 3 -27 8 -51 9 -54 2 -3 11 -46 19 -95 9 -50 18 -101
21 -115 6 -33 25 -128 31 -160 3 -14 11 -57 19 -97 8 -39 18 -89 21 -110 3
-21 14 -78 24 -128 10 -49 16 -93 14 -97 -3 -5 -1 -8 5 -8 5 0 8 -7 7 -17 -2
-9 3 -41 10 -72 8 -31 16 -74 20 -96 3 -22 18 -105 34 -185 15 -80 31 -163 36
-185 4 -22 8 -44 9 -50 2 -5 5 -23 8 -40 3 -16 9 -43 12 -60 3 -16 8 -39 9
-50 2 -11 12 -60 21 -110 10 -49 19 -101 20 -115 2 -14 4 -25 5 -25 2 0 5 -13
20 -95 13 -69 17 -90 25 -130 3 -14 14 -72 25 -130 21 -108 23 -120 34 -180 3
-19 8 -46 11 -60 3 -14 8 -38 10 -55 3 -16 12 -62 20 -102 8 -39 17 -89 20
-110 3 -21 8 -44 11 -52 2 -8 7 -30 10 -50 4 -31 16 -90 48 -256 4 -16 8 -40
11 -53 3 -12 9 -48 15 -80 6 -31 12 -68 15 -82 3 -14 7 -38 10 -55 3 -16 10
-50 15 -75 5 -25 12 -58 15 -75 3 -16 12 -66 20 -110 8 -44 17 -91 20 -105 11
-53 37 -186 41 -210 2 -14 6 -36 8 -50 13 -59 22 -107 32 -165 4 -24 7 -42 39
-202 14 -68 28 -139 31 -159 3 -20 8 -46 10 -58 3 -18 16 -81 19 -96 1 -3 4
-25 8 -50 4 -25 12 -63 17 -85 9 -38 45 -231 54 -288 3 -15 7 -35 10 -45 5
-16 75 -17 1273 -16 1357 2 1299 1 1291 9 -5 5 0 35 16 111 2 12 7 37 10 55 3
19 10 57 16 84 6 28 12 64 15 80 3 17 9 53 15 80 5 28 12 61 14 75 3 14 10 50
16 80 6 30 13 70 16 89 3 18 7 41 9 50 15 78 45 233 50 261 16 97 27 156 32
170 3 8 7 29 9 45 2 17 6 41 9 55 8 35 13 59 19 100 3 19 10 58 15 85 6 28 13
61 15 75 2 14 9 45 14 70 6 25 14 65 17 90 4 24 9 48 11 52 2 3 7 26 9 50 6
46 13 83 15 83 1 0 3 11 5 25 2 14 6 36 9 50 6 32 24 126 31 165 2 17 7 41 10
55 3 14 7 36 10 50 3 14 7 35 9 46 2 12 7 37 10 55 3 19 10 57 15 84 6 28 12
59 14 70 3 11 7 36 11 55 3 19 8 45 10 56 2 12 7 39 10 60 4 22 8 46 11 54 6
20 16 70 20 100 1 14 6 41 10 60 4 19 9 44 11 55 2 11 12 67 23 125 11 58 23
117 26 133 3 15 7 39 11 55 3 15 7 41 10 57 2 17 9 51 15 77 6 25 12 57 13 70
2 12 18 100 35 193 18 94 34 181 36 195 2 14 4 25 5 25 2 0 6 19 14 65 6 39
12 69 21 115 3 17 10 50 15 75 4 25 11 56 14 70 2 14 7 41 10 60 3 19 7 44 9
55 8 39 20 100 22 110 2 6 5 26 8 45 4 19 17 91 31 160 13 69 27 142 30 162 3
21 10 58 16 83 6 25 13 62 16 83 3 20 8 46 11 57 4 11 7 31 9 45 2 22 8 57 29
160 7 31 17 90 20 110 1 8 5 26 8 40 4 14 9 41 12 60 4 19 8 42 9 50 4 24 20
105 21 110 1 3 5 28 10 55 5 28 9 52 10 55 1 3 4 19 8 35 3 17 9 48 12 70 3
22 10 56 15 75 5 19 11 53 15 74 3 21 7 48 10 60 3 12 7 32 9 46 2 14 7 36 10
50 3 14 8 41 11 60 2 19 7 46 10 60 4 14 8 39 10 55 2 17 4 30 5 30 2 0 5 17
13 60 3 17 10 55 17 85 6 30 13 71 16 90 3 19 16 85 28 147 13 61 20 115 17
120 -9 12 -1168 10 -1180 -2 -5 -6 -12 -23 -15 -39 -5 -26 -15 -77 -30 -151
-9 -39 -47 -220 -51 -235 -2 -8 -6 -26 -9 -40 -3 -14 -8 -36 -10 -50 -2 -14
-9 -45 -15 -70 -5 -25 -12 -56 -15 -70 -2 -14 -12 -59 -21 -100 -9 -41 -18
-84 -20 -95 -2 -11 -9 -42 -15 -70 -6 -27 -12 -59 -14 -70 -3 -11 -17 -76 -31
-145 -15 -69 -29 -134 -31 -145 -2 -11 -5 -27 -7 -35 -8 -30 -21 -95 -23 -115
-1 -11 -3 -20 -4 -20 -2 0 -3 -8 -13 -55 -3 -14 -20 -90 -37 -170 -17 -80 -33
-156 -35 -170 -8 -45 -13 -65 -23 -105 -6 -22 -13 -56 -16 -75 -3 -19 -16 -86
-30 -148 -14 -62 -27 -125 -30 -140 -3 -15 -12 -58 -20 -96 -9 -38 -13 -72
-11 -76 3 -5 1 -10 -4 -12 -6 -1 -12 -21 -15 -43 -2 -22 -5 -40 -6 -40 -1 0
-3 -7 -5 -15 -3 -17 -31 -153 -39 -190 -3 -14 -12 -56 -21 -95 -17 -75 -34
-157 -40 -190 -2 -11 -6 -31 -10 -45 -3 -14 -8 -34 -9 -45 -8 -45 -18 -93 -31
-151 -8 -34 -16 -73 -19 -85 -2 -13 -9 -44 -15 -69 -11 -48 -12 -53 -35 -173
-9 -44 -18 -82 -20 -86 -2 -3 -7 -27 -11 -51 -4 -25 -13 -74 -22 -110 -8 -36
-17 -74 -19 -85 -2 -11 -13 -63 -24 -115 -11 -52 -22 -104 -24 -115 -2 -11
-16 -76 -30 -145 -31 -143 -32 -148 -46 -215 -6 -27 -13 -61 -16 -75 -3 -14
-7 -34 -9 -45 -8 -46 -46 -219 -50 -224 -1 -3 -6 -23 -9 -43 -3 -21 -10 -58
-16 -83 -6 -25 -13 -62 -16 -83 -3 -20 -8 -41 -11 -46 -3 -4 -7 -20 -8 -35 -2
-14 -11 -62 -20 -106 -10 -44 -19 -87 -20 -95 -2 -8 -4 -15 -5 -15 -1 0 -3
-11 -6 -25 -2 -14 -14 -68 -25 -120 -12 -52 -23 -108 -26 -125 -2 -16 -11 -55
-18 -85 -7 -30 -16 -68 -19 -85 -3 -16 -7 -41 -11 -55 -3 -14 -8 -38 -11 -55
-9 -44 -12 -60 -14 -60 -1 0 -3 -9 -5 -20 -4 -28 -11 -61 -36 -175 -5 -25 -12
-58 -15 -75 -4 -16 -7 -34 -9 -40 -1 -5 -6 -26 -11 -45 -9 -37 -9 -34 -39 140
-3 19 -8 42 -10 50 -3 8 -7 32 -11 54 -3 21 -8 48 -10 60 -3 11 -9 48 -15 80
-5 33 -12 63 -14 67 -3 4 -7 24 -10 45 -4 22 -8 48 -10 59 -2 11 -8 45 -14 75
-5 30 -15 82 -21 115 -6 33 -20 105 -30 160 -11 55 -22 114 -25 130 -2 17 -9
55 -15 85 -6 30 -13 66 -16 80 -2 14 -11 59 -19 100 -8 41 -17 89 -20 105 -7
42 -14 76 -36 190 -11 55 -22 114 -24 130 -3 17 -7 41 -10 55 -3 14 -8 41 -11
60 -3 19 -7 42 -10 50 -3 8 -8 33 -11 55 -3 22 -9 45 -14 51 -5 6 -7 13 -4 16
3 2 -4 54 -16 114 -11 60 -23 123 -25 139 -3 17 -7 37 -10 45 -3 8 -8 31 -10
50 -5 40 -12 75 -14 75 -1 0 -3 9 -5 20 -1 11 -6 36 -9 55 -4 19 -8 49 -11 65
-2 17 -9 48 -14 69 -5 22 -8 44 -5 48 3 4 1 8 -4 8 -5 0 -9 8 -9 18 1 9 -6 58
-16 107 -9 50 -19 101 -22 115 -3 14 -7 36 -10 50 -2 14 -7 39 -10 55 -3 17
-7 41 -10 55 -3 14 -9 50 -15 80 -6 30 -13 69 -16 85 -4 17 -8 39 -9 50 -2 11
-4 20 -5 20 -1 0 -3 9 -4 20 -3 18 -14 83 -22 125 -2 8 -5 26 -8 40 -3 14 -7
34 -9 45 -3 11 -8 40 -12 65 -4 25 -9 54 -12 65 -2 11 -6 33 -9 50 -2 16 -6
37 -9 45 -2 8 -7 33 -10 55 -4 22 -10 56 -15 75 -5 19 -11 51 -14 70 -2 19 -7
46 -10 60 -3 14 -8 39 -11 55 -27 147 -36 193 -41 215 -3 14 -7 36 -10 50 -7
42 -17 94 -21 110 -1 8 -5 29 -8 45 -2 17 -7 44 -10 60 -33 165 -42 221 -38
228 2 4 -1 7 -7 7 -6 0 -9 4 -6 8 2 4 -2 39 -10 77 -8 39 -17 81 -19 95 -1 14
-15 86 -29 160 -14 74 -28 151 -32 170 -3 19 -7 40 -8 45 -2 6 -6 28 -10 50
-4 22 -11 60 -16 85 -13 60 -20 99 -25 135 -3 17 -9 53 -15 80 -6 28 -12 61
-15 75 -3 14 -7 36 -10 50 -2 14 -7 41 -10 60 -3 19 -8 43 -11 53 -6 19 -10
42 -19 102 -3 17 -9 50 -14 75 -5 25 -12 59 -15 75 -2 17 -7 39 -9 50 -2 11
-8 41 -11 68 -4 26 -13 48 -19 48 -7 1 -596 2 -1309 3 -1149 1 -1298 -1 -1299
-14 0 -8 -2 -22 -4 -30 -1 -8 -8 -42 -14 -75 -14 -73 -19 -102 -26 -135 -3
-14 -8 -43 -11 -65 -3 -22 -7 -42 -9 -45 -2 -3 -6 -24 -9 -46 -4 -22 -9 -51
-12 -64 -6 -31 -33 -177 -39 -210 -2 -14 -11 -61 -20 -104 -8 -44 -18 -93 -20
-110 -3 -17 -8 -44 -12 -61 -3 -16 -7 -41 -9 -55 -1 -14 -3 -25 -4 -25 -2 0
-11 -42 -25 -126 -3 -14 -12 -61 -20 -105 -9 -43 -18 -92 -20 -109 -3 -16 -7
-41 -10 -55 -6 -26 -9 -41 -20 -105 -3 -22 -8 -47 -10 -55 -3 -8 -7 -32 -11
-54 -3 -21 -8 -48 -10 -60 -6 -30 -32 -165 -39 -201 -2 -16 -7 -41 -10 -55 -3
-14 -10 -52 -15 -85 -6 -33 -17 -91 -25 -130 -13 -66 -18 -92 -30 -167 -3 -18
-8 -40 -11 -49 -2 -10 -6 -31 -9 -48 -2 -17 -6 -38 -9 -48 -3 -10 -7 -34 -10
-53 -3 -19 -8 -46 -11 -60 -2 -14 -7 -36 -10 -50 -2 -14 -7 -41 -10 -60 -3
-19 -8 -43 -11 -53 -3 -10 -7 -32 -10 -50 -2 -18 -8 -54 -14 -82 -6 -27 -12
-63 -15 -80 -2 -16 -7 -41 -9 -55 -14 -61 -17 -77 -22 -109 -3 -18 -7 -45 -9
-60 -2 -14 -5 -26 -6 -26 -1 0 -3 -9 -4 -20 -3 -18 -11 -59 -30 -157 -3 -16
-7 -40 -10 -55 -3 -16 -8 -39 -10 -53 -11 -52 -15 -75 -21 -114 -3 -22 -7 -43
-9 -46 -2 -3 -6 -26 -10 -50 -3 -25 -8 -52 -10 -60 -4 -15 -14 -67 -20 -105
-4 -24 -23 -121 -31 -155 -3 -14 -7 -41 -10 -60 -2 -19 -7 -42 -9 -50 -3 -8
-7 -32 -11 -54 -3 -21 -8 -48 -10 -60 -2 -11 -7 -34 -9 -51 -3 -16 -8 -37 -10
-45 -2 -8 -7 -31 -10 -50 -3 -19 -8 -46 -10 -60 -13 -63 -30 -156 -40 -220 -3
-19 -8 -42 -10 -50 -2 -8 -6 -26 -9 -40 -11 -66 -54 -295 -71 -385 -3 -11 -6
-33 -9 -50 -2 -16 -9 -50 -15 -75 -5 -25 -12 -61 -16 -80 -3 -19 -10 -57 -15
-85 -5 -27 -12 -61 -14 -75 -3 -14 -5 -25 -6 -25 -1 0 -3 -13 -5 -30 -2 -16
-7 -46 -11 -65 -4 -19 -8 -42 -9 -50 -4 -21 -16 -89 -20 -109 -16 -82 -45
-233 -50 -261 -3 -19 -10 -57 -15 -85 -6 -27 -12 -61 -15 -75 -3 -14 -7 -36
-10 -50 -10 -50 -17 -95 -18 -107 -2 -41 -16 6 -46 150 -19 89 -43 203 -53
252 -11 50 -20 99 -22 110 -1 12 -5 25 -8 30 -3 6 -9 28 -13 50 -12 69 -15 80
-30 148 -3 12 -8 38 -11 57 -3 19 -8 38 -10 41 -2 4 -6 24 -10 45 -3 22 -12
64 -19 94 -12 49 -19 82 -30 145 -2 11 -4 20 -5 20 -1 0 -3 11 -6 25 -2 14
-14 68 -25 120 -11 52 -23 104 -25 115 -2 11 -6 29 -8 40 -3 11 -14 65 -26
120 -12 55 -23 109 -26 120 -2 11 -6 31 -9 45 -9 45 -13 67 -35 166 -12 55
-24 108 -26 119 -2 11 -7 36 -10 55 -3 19 -8 39 -11 43 -2 4 -6 22 -9 40 -2
18 -6 41 -9 52 -4 19 -81 375 -91 420 -2 11 -6 31 -9 45 -3 14 -7 34 -10 45
-2 11 -13 63 -25 115 -11 52 -22 104 -24 115 -2 11 -9 39 -14 63 -5 23 -8 42
-5 42 3 0 0 7 -7 15 -7 8 -10 15 -7 15 3 0 0 19 -5 43 -5 23 -12 53 -14 67 -3
14 -9 41 -15 61 -5 20 -11 49 -13 65 -3 16 -7 40 -10 54 -25 111 -37 169 -41
190 -3 14 -8 36 -11 50 -4 14 -8 34 -9 45 -6 40 -14 75 -18 83 -3 4 -8 27 -12
52 -4 25 -8 47 -10 50 -2 3 -6 21 -9 40 -3 19 -8 44 -10 55 -3 11 -12 54 -21
95 -16 70 -20 92 -30 145 -2 11 -4 20 -5 20 -1 0 -3 7 -5 15 -1 8 -8 40 -14
70 -6 30 -13 65 -16 78 -2 13 -7 33 -11 44 -3 11 -7 30 -9 41 -1 12 -7 42 -13
67 -6 25 -13 59 -16 75 -3 17 -13 62 -21 100 -9 39 -18 81 -21 95 -3 14 -7 34
-9 45 -6 36 -16 79 -25 114 -5 19 -7 38 -4 43 3 4 1 8 -3 8 -5 0 -9 8 -9 18 0
9 -13 73 -28 142 -48 220 -85 394 -90 420 -2 14 -14 69 -26 124 -12 54 -23
106 -25 115 -16 81 -37 175 -39 180 -2 3 -7 23 -10 43 -3 21 -17 88 -30 151
-14 62 -27 126 -30 142 -2 17 -5 31 -6 33 -2 1 -3 6 -4 11 0 5 -5 13 -9 18
-10 9 -1177 11 -1183 1z"/>
<path d="M11599 11905 c-1 0 -3 -1522 -4 -3382 -1 -2366 2 -3383 9 -3386 6 -2
603 -2 1326 -2 1186 2 1552 6 1705 20 28 3 84 7 125 11 41 3 93 7 115 9 37 4
61 7 175 20 74 9 275 42 275 45 0 1 13 3 30 5 16 2 50 9 75 15 25 6 54 12 65
15 11 2 35 8 53 14 18 5 35 10 37 10 3 1 6 1 8 2 1 0 10 2 20 4 26 5 129 36
152 45 11 5 31 12 45 15 26 8 122 43 205 77 50 20 212 99 250 122 42 24 110
69 115 75 3 3 23 19 45 35 116 83 275 275 358 432 30 57 95 221 101 256 3 13
5 23 6 23 3 0 18 67 45 205 20 98 28 519 12 605 -4 22 -10 63 -13 90 -2 28 -9
64 -14 80 -5 17 -11 44 -13 60 -2 17 -7 37 -10 45 -3 8 -15 45 -26 82 -11 37
-27 81 -36 98 -8 16 -12 30 -8 30 5 0 4 4 -2 8 -5 4 -26 40 -45 79 -19 40 -38
73 -42 73 -5 0 -8 6 -8 13 0 6 -14 27 -30 46 -17 18 -30 37 -30 41 0 7 -141
151 -172 176 -39 31 -137 94 -147 94 -6 0 -11 3 -11 8 0 8 -48 32 -66 32 -7 0
-14 4 -16 8 -4 12 -224 104 -323 135 -143 46 -222 64 -371 82 -112 13 -187 78
-200 173 -8 55 -10 112 -4 112 3 0 5 12 4 27 -2 60 48 118 144 165 36 18 70
33 76 34 55 11 317 112 369 141 105 61 204 149 265 238 15 22 30 42 35 43 4 2
7 8 7 13 0 5 10 26 23 47 23 37 97 203 101 225 1 7 5 18 9 25 5 6 6 12 3 12
-3 0 -1 11 4 25 13 34 18 61 40 195 15 93 18 158 15 335 -2 121 -6 232 -9 246
-3 15 -10 53 -15 85 -14 90 -20 118 -42 191 -25 87 -24 83 -37 116 -7 16 -12
31 -12 34 0 3 -21 46 -46 96 -93 185 -208 314 -389 439 -77 53 -339 178 -373
178 -10 0 -22 4 -28 10 -5 5 -18 11 -29 13 -11 1 -24 5 -30 9 -9 5 -149 45
-186 52 -8 2 -21 6 -29 9 -8 3 -33 9 -55 13 -62 11 -68 12 -105 20 -19 4 -41
8 -48 10 -14 3 -138 23 -184 30 -16 2 -40 6 -55 9 -16 2 -55 7 -88 10 -33 3
-76 8 -95 10 -79 10 -233 21 -440 30 -107 5 -2174 13 -2561 10z m2776 -1089
c33 -4 74 -9 90 -11 17 -3 44 -7 60 -9 17 -3 62 -12 100 -21 39 -9 81 -19 95
-21 64 -12 180 -58 229 -91 73 -49 139 -130 185 -225 24 -51 47 -109 52 -128
4 -19 8 -37 9 -40 7 -27 18 -87 21 -118 5 -60 5 -234 0 -272 -3 -19 -7 -53
-10 -75 -6 -43 -13 -80 -16 -80 -1 0 -3 -11 -6 -24 -5 -27 -24 -73 -62 -146
-50 -98 -175 -201 -297 -243 -98 -34 -235 -65 -335 -77 -25 -3 -56 -8 -70 -10
-42 -6 -170 -17 -270 -21 -52 -2 -111 -5 -132 -7 -20 -1 -34 2 -31 7 4 5 0 6
-7 1 -8 -5 -267 -9 -577 -9 -493 -1 -564 1 -567 14 -6 21 -5 1603 1 1613 5 9
1447 2 1538 -7z m-430 -2697 c6 -1 15 0 20 1 6 1 66 2 135 1 69 0 148 0 175 0
78 0 129 -3 295 -16 180 -14 207 -18 395 -49 17 -3 73 -17 125 -31 52 -14 102
-27 110 -30 8 -2 33 -11 55 -20 87 -37 124 -55 130 -65 4 -6 10 -8 14 -6 17
11 157 -132 196 -200 22 -37 38 -70 37 -72 -2 -3 0 -8 5 -11 11 -7 50 -132 59
-186 3 -22 7 -42 9 -45 4 -6 18 -199 18 -230 0 -8 -3 -58 -7 -110 -6 -94 -9
-121 -20 -170 -14 -61 -17 -80 -17 -85 1 -3 -6 -19 -14 -35 -9 -17 -13 -30
-11 -30 7 0 -65 -140 -84 -164 -46 -59 -135 -135 -191 -163 -80 -40 -128 -60
-154 -65 -11 -1 -22 -5 -25 -9 -4 -4 -84 -24 -225 -55 -11 -3 -33 -6 -50 -8
-16 -2 -48 -6 -70 -10 -47 -8 -93 -13 -190 -22 -38 -3 -92 -8 -120 -11 -27 -2
-424 -7 -881 -10 l-832 -5 0 956 0 955 27 3 c27 3 1068 1 1086 -3z"/>
</g>
</svg>
