<svg width="14" height="14" viewBox="0 0 14 14" fill="none" xmlns="http://www.w3.org/2000/svg">
<path d="M8.40994 6.60624L12.7099 1.886C12.8982 1.67881 13.004 1.3978 13.004 1.10479C13.004 0.811783 12.8982 0.530775 12.7099 0.323586C12.5216 0.116397 12.2662 0 11.9999 0C11.7336 0 11.4782 0.116397 11.2899 0.323586L6.99994 5.05483L2.70994 0.323586C2.52164 0.116397 2.26624 -2.18309e-09 1.99994 0C1.73364 2.18309e-09 1.47824 0.116397 1.28994 0.323586C1.10164 0.530775 0.995847 0.811783 0.995847 1.10479C0.995847 1.3978 1.10164 1.67881 1.28994 1.886L5.58994 6.60624L1.28994 11.3265C1.19621 11.4288 1.12182 11.5505 1.07105 11.6845C1.02028 11.8186 0.994141 11.9624 0.994141 12.1077C0.994141 12.2529 1.02028 12.3968 1.07105 12.5308C1.12182 12.6649 1.19621 12.7866 1.28994 12.8889C1.3829 12.992 1.4935 13.0739 1.61536 13.1297C1.73722 13.1856 1.86793 13.2144 1.99994 13.2144C2.13195 13.2144 2.26266 13.1856 2.38452 13.1297C2.50638 13.0739 2.61698 12.992 2.70994 12.8889L6.99994 8.15765L11.2899 12.8889C11.3829 12.992 11.4935 13.0739 11.6154 13.1297C11.7372 13.1856 11.8679 13.2144 11.9999 13.2144C12.132 13.2144 12.2627 13.1856 12.3845 13.1297C12.5064 13.0739 12.617 12.992 12.7099 12.8889C12.8037 12.7866 12.8781 12.6649 12.9288 12.5308C12.9796 12.3968 13.0057 12.2529 13.0057 12.1077C13.0057 11.9624 12.9796 11.8186 12.9288 11.6845C12.8781 11.5505 12.8037 11.4288 12.7099 11.3265L8.40994 6.60624Z" fill="black"/>
</svg>
